<svg width="19" height="24" viewBox="0 0 19 24" fill="none" xmlns="http://www.w3.org/2000/svg">
	<path d="M9.5 0.666992C4.26 0.666992 0 4.92699 0 10.167C0 15.237 3.99 19.397 9 19.657V23.257L10.43 22.567C15.56 20.097 19 15.117 19 10.167C19 4.92699 14.74 0.666992 9.5 0.666992ZM11 19.967V17.667H9.5C5.36 17.667 2 14.307 2 10.167C2 6.02699 5.36 2.66699 9.5 2.66699C13.64 2.66699 17 6.02699 17 10.167C17 13.897 14.64 17.677 11 19.967ZM8.5 14.167H10.5V16.167H8.5V14.167ZM9.5 3.66699C7.29 3.66699 5.5 5.45699 5.5 7.66699H7.5C7.5 6.56699 8.4 5.66699 9.5 5.66699C10.6 5.66699 11.5 6.56699 11.5 7.66699C11.5 9.66699 8.5 9.41699 8.5 12.667H10.5C10.5 10.417 13.5 10.167 13.5 7.66699C13.5 5.45699 11.71 3.66699 9.5 3.66699Z" fill="#594E4F"/>
</svg>
